<svg data-name="Layer 1" xmlns="http://www.w3.org/2000/svg" viewBox="0 0 191.02 191.86"><defs><linearGradient id="a" x1="95.51" x2="95.51" y2="191.86" gradientUnits="userSpaceOnUse"><stop offset="0" stop-color="#f8d500"/><stop offset="1" stop-color="#e20ab7"/></linearGradient></defs><path d="M152.92 128.35q38.1 0 38.1 22.56 0 13.22-11 24.24a118.61 118.61 0 01-11.19-5.35q-13.55-7-36.6-7-13.54 0-44.38 5.18t-42.39 15.36q-9.52 8.52-21.39 8.52A28.72 28.72 0 017.35 187q-7-4.84-7.35-12 8.36-9.53 21.73-23.06Q130 42 133 35.1a138.35 138.35 0 00-17 1.33q-29.07 4-43.78 4-41.61 0-41.62-20.72 0-17.88 21.06-17.88a11.37 11.37 0 014 .83 74.54 74.54 0 0026.9 4.69q26.07 0 62.5-5.68A97.78 97.78 0 01160.94 0q9.85 0 16.13 4.6a14.16 14.16 0 016.27 11.94q0 5.68-12.37 21.56l.17-.16q-5.87 11.19-90.92 98.27a54.78 54.78 0 00-4.51 4.84 20.8 20.8 0 012.5-.67 44.94 44.94 0 005.19-1.17l6.51-1.5c2.34-.44 4.52-.94 6.52-1.5a75.77 75.77 0 017.86-1.67q30.92-6.18 47.29-6.19z" fill="url(#a)"/></svg>